# xmcd
#
# Track frame offsets: 
#        225
#        17043
#        38136
#        59146
#        81752
#        103929
#        125552
#        147572
#        164511
#        179567
#
# Disc length: 2676 seconds
#
# Revision: 0
# Processed by: cddbd v1.5.2PL0 Copyright (c) Steve Scherf et al.
# Submitted via: ExactAudioCopy v0.99pb5
#
DISCID=970a710a
DTITLE=Country Boy - Policy King Blues
DYEAR=2009
DGENRE=Blues
TTITLE0=My Rain
TTITLE1=Low Down
TTITLE2=Lucille Blues
TTITLE3=Classic
TTITLE4=Start All Over
TTITLE5=Stax
TTITLE6=Cross
TTITLE7=Double Up
TTITLE8=Bird Nest
TTITLE9=Metal
EXTD=
EXTT0=
EXTT1=
EXTT2=
EXTT3=
EXTT4=
EXTT5=
EXTT6=
EXTT7=
EXTT8=
EXTT9=
PLAYORDER=
